<svg xmlns="http://www.w3.org/2000/svg"  viewBox="0 0 96 96" width="96px" height="96px" baseProfile="basic"><path fill="#44d62c" d="M48,85.503c-0.001,0-0.002,0-0.003,0C30.002,85.501,10.437,73.78,10,48.049	c0-0.034,0-0.068,0-0.102c0.258-15.108,7.645-27.297,20.267-33.441c13.33-6.488,30.023-4.993,41.543,3.721	c1.01,0.765,1.4,2.043,1.082,3.194c1.11-0.442,2.426-0.189,3.294,0.732c6.247,6.643,9.641,15.563,9.814,25.796	c0,0.034,0,0.068,0,0.102C85.56,73.783,65.994,85.503,48,85.503z M16,47.998c0.393,21.644,16.855,31.504,31.998,31.505	C63.14,79.503,79.604,69.645,80,48c-0.158-8.695-2.987-16.21-8.184-21.735c-0.745-0.792-0.976-1.882-0.706-2.857	c-0.943,0.373-2.052,0.26-2.919-0.396c-9.762-7.386-23.947-8.636-35.297-3.11C22.234,25.09,16.236,35.066,16,47.998z" opacity=".3"/><path fill="#44d62c" d="M48,84.503c-0.001,0-0.002,0-0.003,0C30.476,84.502,11.425,73.088,11,48.032	c0.251-14.786,7.433-26.653,19.704-32.627c13.001-6.327,29.277-4.873,40.502,3.619c0.881,0.666,1.055,1.921,0.389,2.802	c-0.667,0.881-1.922,1.055-2.802,0.388c-10.055-7.606-24.659-8.897-36.338-3.212C21.427,24.37,15.228,34.681,15,48.032	c0.379,22.286,17.371,32.47,32.999,32.471C63.625,80.504,80.619,70.322,81,47.966c-0.152-8.901-3.076-16.666-8.457-22.387	c-0.756-0.805-0.718-2.07,0.087-2.827c0.805-0.758,2.07-0.719,2.827,0.087c6.074,6.458,9.374,15.146,9.542,25.127	C84.572,73.091,65.521,84.503,48,84.503z" opacity=".3"/><path fill="#0fd2ff" d="M37.422,41c-0.049,0-0.098-0.001-0.147-0.004c-1.655-0.079-2.932-1.485-2.852-3.141	c0.081-1.673,0.212-4.401-0.042-5.283c-0.891-0.271-3.718-0.175-5.281-0.124c-1.652,0.042-3.043-1.24-3.099-2.897	c-0.055-1.656,1.242-3.043,2.898-3.099c4.466-0.147,7.689-0.257,9.791,1.875c2.097,2.129,1.942,5.354,1.727,9.817	C40.339,39.75,39.013,41,37.422,41z" opacity=".3"/><path fill="#0fd2ff" d="M37.421,40c-0.032,0-0.065-0.001-0.098-0.002c-1.104-0.054-1.955-0.991-1.901-2.095	c0.112-2.32,0.265-5.499-0.294-6.066c-0.563-0.571-3.74-0.465-6.062-0.388c-1.105,0.066-2.029-0.827-2.066-1.932	s0.828-2.029,1.932-2.066c4.629-0.157,7.333-0.159,9.044,1.578c1.707,1.731,1.664,4.437,1.44,9.067	C39.366,39.167,38.482,40,37.421,40z" opacity=".3"/><path fill="#0fd2ff" d="M48,72c-13.234,0-24-10.767-24-24c0-5.722,2.173-11.125,6.285-15.626	c1.118-1.222,3.014-1.309,4.238-0.191c1.223,1.117,1.309,3.015,0.191,4.238C31.586,39.846,30,43.741,30,48c0,9.925,8.075,18,18,18	s18-8.075,18-18s-8.075-18-18-18c-1.657,0-3-1.343-3-3s1.343-3,3-3c13.234,0,24,10.767,24,24S61.234,72,48,72z" opacity=".3"/><path fill="#0fd2ff" d="M48,71c-12.682,0-23-10.317-23-23c0-5.546,2.026-10.576,6.023-14.951	c0.746-0.817,2.01-0.872,2.826-0.128c0.815,0.745,0.873,2.01,0.127,2.825C30.674,39.361,29,43.483,29,48c0,10.477,8.523,19,19,19	s19-8.523,19-19s-8.523-19-19-19c-1.104,0-2-0.896-2-2s0.896-2,2-2c12.682,0,23,10.317,23,23S60.682,71,48,71z" opacity=".3"/><path fill="#44d62c" d="M48,83.503c-0.001,0-0.002,0-0.003,0C30.95,83.502,12.413,72.396,12,48.015	c0.245-14.361,7.222-25.907,19.143-31.71c12.669-6.169,28.527-4.755,39.461,3.517c0.44,0.334,0.527,0.961,0.194,1.401	c-0.333,0.44-0.96,0.525-1.401,0.194c-10.347-7.829-25.37-9.159-37.378-3.314C20.634,23.645,14.235,34.268,14,48.015	c0.39,22.996,17.897,33.487,33.998,33.488C64.099,81.504,81.607,71.015,82,47.983c-0.156-9.188-3.174-17.185-8.728-23.089	c-0.378-0.402-0.359-1.035,0.043-1.414c0.402-0.378,1.036-0.358,1.414,0.043c5.9,6.273,9.106,14.731,9.271,24.46	C83.583,72.398,65.047,83.503,48,83.503z"/><path fill="#0fd2ff" d="M37.421,39c-0.017,0-0.033,0-0.049-0.001c-0.551-0.026-0.977-0.495-0.951-1.047	c0.178-3.694,0.228-5.997-0.58-6.817c-0.813-0.824-3.114-0.808-6.807-0.686c-0.565,0.065-1.015-0.413-1.033-0.966	c-0.019-0.552,0.414-1.014,0.966-1.032c4.352-0.147,6.882-0.158,8.299,1.28c1.416,1.437,1.37,3.84,1.154,8.316	C38.393,38.583,37.951,39,37.421,39z"/><path fill="#0fd2ff" d="M48,70c-12.131,0-22-9.869-22-22c0-5.289,1.938-10.092,5.762-14.277	c0.372-0.406,1.004-0.435,1.413-0.063c0.408,0.372,0.437,1.005,0.064,1.413C29.762,38.877,28,43.227,28,48c0,11.028,8.972,20,20,20	s20-8.972,20-20s-8.972-20-20-20c-0.552,0-1-0.447-1-1s0.448-1,1-1c12.131,0,22,9.869,22,22S60.131,70,48,70z"/></svg>