<svg width="172" height="238" viewBox="0 0 172 238" fill="none" xmlns="http://www.w3.org/2000/svg">
<path d="M136.602 187.342L146.306 229.886L161.18 228.863" stroke="#333333" stroke-width="5.6" stroke-linecap="round" stroke-linejoin="round"/>
<path d="M72.6718 192.183L82.3838 234.734L97.2573 233.711" stroke="#333333" stroke-width="5.6" stroke-linecap="round" stroke-linejoin="round"/>
<path d="M24.1954 75.5921C26.6158 88.9233 18.4003 99.7042 12.3379 106.377C7.90178 111.256 8.89438 118.953 14.4299 122.541L29.7386 131.238C32.556 132.834 32.64 136.857 29.899 138.575L23.1494 142.805" stroke="#333333" stroke-width="5.6" stroke-linecap="round" stroke-linejoin="round"/>
<path d="M41.9245 176.126L42.0543 176.843L43.1843 183.257C45.2077 194.71 38.1145 205.529 27.3565 207.43C16.6366 209.316 6.27552 201.574 4.25981 190.121L3 182.99L41.9245 176.126Z" fill="#FBBC00"/>
<path d="M144.298 17.4955C144.298 17.4955 165.975 131.116 168.876 156.892C170.22 168.689 160.767 185.578 134.548 189.686L129.707 190.541L85.9265 198.26L47.0402 205.117L27.555 208.553C38.3131 206.659 45.3986 195.832 43.3829 184.379L41.5504 173.98L41.4206 173.262L39.7103 163.581L37.8855 153.22L18.5836 43.7608C17.0336 34.9574 22.2027 22.5806 31.0061 21.0307L125.546 4.3629C134.349 2.81294 142.74 8.68445 144.29 17.4879L144.298 17.4955Z" fill="#FBD747"/>
<path d="M63.0971 170.132C34.4267 147.165 21.3857 34.2472 23.7755 26.0164C26.2188 17.5794 65.3495 14.9834 65.3495 14.9834L105.312 7.9361L130.898 5.11105C134.304 4.73692 140.083 7.92846 141.58 11.0055L147.406 26.8028L166.372 146.027C169.388 171.751 85.3386 187.96 63.0895 170.14L63.0971 170.132Z" fill="#FFF09B"/>
<path d="M134.349 188.563C160.569 184.456 170.021 167.566 168.677 155.77C165.776 129.993 144.1 16.373 144.1 16.373C142.55 7.56958 134.158 1.69807 125.355 3.24803L30.8152 19.9158C22.0118 21.4658 16.1403 29.8569 17.6902 38.6604L37.6946 152.105L39.5194 162.466" stroke="#333333" stroke-width="5.6" stroke-linecap="round" stroke-linejoin="round"/>
<path d="M39.5195 162.466L41.2221 172.148L41.3519 172.865" stroke="#333333" stroke-width="5.6" stroke-linecap="round" stroke-linejoin="round"/>
<path d="M134.349 188.564L129.509 189.419L85.728 197.138L46.8416 203.994L27.3565 207.43C16.6366 209.316 6.97795 205.56 4.96224 194.107L3 182.99L41.9245 176.126" stroke="#333333" stroke-width="5.6" stroke-linecap="round" stroke-linejoin="round"/>
<path d="M41.3519 172.865L43.1843 183.265C45.2077 194.717 38.1145 205.537 27.3564 207.438" stroke="#333333" stroke-width="5.6" stroke-linecap="round" stroke-linejoin="round"/>
<path d="M57.4775 111.241L145.909 95.6423" stroke="#333333" stroke-width="5.6" stroke-linecap="round" stroke-linejoin="round"/>
<path d="M59.9667 125.336L148.391 109.745" stroke="#333333" stroke-width="5.6" stroke-linecap="round" stroke-linejoin="round"/>
<path d="M62.4481 139.438L150.88 123.847" stroke="#333333" stroke-width="5.6" stroke-linecap="round" stroke-linejoin="round"/>
<path d="M64.9372 153.533L153.361 137.942" stroke="#333333" stroke-width="5.6" stroke-linecap="round" stroke-linejoin="round"/>
<path d="M81.1087 165.222L142.168 154.457" stroke="#333333" stroke-width="5.6" stroke-linecap="round" stroke-linejoin="round"/>
<path d="M115.07 49.1894C114.505 45.5245 116.422 41.9359 120.675 41.1876C124.927 40.4394 127.943 43.1117 128.676 46.7919" stroke="#333333" stroke-width="5.6" stroke-linecap="round" stroke-linejoin="round"/>
<path d="M108.481 57.3669C109.657 64.7808 104.389 69.7819 98.0131 70.9043C91.6377 72.0266 84.9492 69.0489 83.5443 61.7649" stroke="#333333" stroke-width="5.6" stroke-linecap="round" stroke-linejoin="round"/>
<path d="M60.9439 58.7337C60.3789 55.0688 62.2954 51.4802 66.5482 50.732C70.801 49.9837 73.817 52.656 74.55 56.3362" stroke="#333333" stroke-width="5.6" stroke-linecap="round" stroke-linejoin="round"/>
<path d="M72.5801 72.0266C73.2138 75.5999 69.3886 79.2649 64.0362 80.204C58.6916 81.1431 53.8432 79.0129 53.2171 75.4396C52.5834 71.8663 56.4086 68.2014 61.7609 67.2622C67.1056 66.3231 71.954 68.4533 72.5801 72.0266Z" fill="#FF7ABE"/>
<path d="M133.109 68.0173C138.454 67.0749 142.276 63.4157 141.646 59.8444C141.017 56.273 136.174 54.1418 130.829 55.0842C125.484 56.0266 121.662 59.6857 122.292 63.2571C122.922 66.8285 127.765 68.9597 133.109 68.0173Z" fill="#FF7ABE"/>
</svg>
