<svg width="252" height="205" viewBox="0 0 252 205" fill="none" xmlns="http://www.w3.org/2000/svg">
<path d="M234.395 95.3965C234.44 147.805 211.756 171.501 185.245 175.195C185.227 175.195 155.858 181.605 142.496 179.412C133.44 177.938 125.21 180.087 118.702 180.024C109.149 179.936 97.7226 182.715 83.5795 181.365C59.6347 179.074 3 178.746 3 95.3876C3 83.7748 5.69013 72.6592 10.5732 62.4314C27.2111 27.6817 69.3476 3 118.702 3C128.344 3 137.275 3.79017 145.568 5.23734C209.429 16.3086 234.36 66.2046 234.386 95.3787L234.395 95.3965Z" fill="#ACACAC"/>
<path d="M232.735 83.6415C232.735 146.012 172.052 160.545 90.7354 141.901C18.1908 125.272 56.0212 24.0326 84.121 12.2866C105.828 3.21299 101.194 8.69091 145.577 5.255C197.408 14.4085 232.735 69.5694 232.735 83.6415Z" fill="#C8C8C8"/>
<path d="M58.5692 44.4085L58.8089 32.8223L48.8297 22.0618L58.8089 32.8223C58.8089 32.8223 75.9973 36.56 74.9497 55.1246" stroke="#949494" stroke-width="5.6" stroke-linecap="round" stroke-linejoin="round"/>
<path d="M234.395 95.3877C236.641 190.51 152.963 180.353 118.702 180.025C84.4407 179.705 3.00891 197.151 3.00891 95.3877C3.00891 83.7837 5.69016 72.6681 10.5821 62.4403C27.2023 27.6906 69.3387 3.01782 118.702 3.01782C202.54 3.01782 233.623 62.4492 234.395 95.3966V95.3877Z" stroke="#333333" stroke-width="5.6" stroke-linecap="round" stroke-linejoin="round"/>
<path d="M96.2577 180.3L117.823 147.255C119.625 144.493 123.736 144.698 125.254 147.619L153.141 201.155C153.469 201.679 169.228 201.155 169.228 201.155" stroke="#333333" stroke-width="5.6" stroke-linecap="round" stroke-linejoin="round"/>
<path d="M176.029 175.985L197.595 142.94C199.397 140.179 203.508 140.383 205.026 143.304L232.913 196.84C233.241 197.364 249 196.84 249 196.84" stroke="#333333" stroke-width="5.6" stroke-linecap="round" stroke-linejoin="round"/>
<path d="M39.9249 73.9644C40.2001 80.8273 4.05655 106.894 43.6804 124.588C45.2696 125.299 45.6692 127.385 44.4351 128.61L39.3833 133.635" stroke="#333333" stroke-width="5.6" stroke-linecap="round" stroke-linejoin="round"/>
<path d="M175.914 71.8425C175.914 81.7596 167.879 88.4982 157.962 88.4982H152.253C142.336 88.4982 134.798 81.7507 134.798 71.8425V67.4123C134.798 66.0716 135.89 64.9796 137.231 64.9796H173.472C174.813 64.9796 175.905 66.0716 175.905 67.4123V71.8425H175.914Z" fill="#333333"/>
<path d="M154.375 75.0742C149.137 75.0742 144.44 77.3559 141.191 80.9605C143.934 83.837 148.205 85.5417 153.043 85.5417H157.314C161.584 85.5417 165.526 84.2011 168.358 81.9016C165.1 77.7554 160.057 75.083 154.384 75.083L154.375 75.0742Z" fill="#DA325F"/>
<path d="M110.49 65.237C110.561 61.7301 112.94 58.6937 117.033 58.6937C121.126 58.6937 123.496 61.6857 123.576 65.237" stroke="#333333" stroke-width="5.6" stroke-linecap="round" stroke-linejoin="round"/>
<path d="M193.2 69.7382C197.083 69.7382 200.231 66.59 200.231 62.7065C200.231 58.8231 197.083 55.6749 193.2 55.6749C189.316 55.6749 186.168 58.8231 186.168 62.7065C186.168 66.59 189.316 69.7382 193.2 69.7382Z" fill="#333333"/>
<path d="M115.302 88.9243C120.18 88.9243 124.135 86.2809 124.135 83.0202C124.135 79.7595 120.18 77.1161 115.302 77.1161C110.423 77.1161 106.468 79.7595 106.468 83.0202C106.468 86.2809 110.423 88.9243 115.302 88.9243Z" fill="#FF7ABE"/>
<path d="M200.143 88.9243C205.021 88.9243 208.977 86.281 208.977 83.0203C208.977 79.7595 205.021 77.1162 200.143 77.1162C195.264 77.1162 191.309 79.7595 191.309 83.0203C191.309 86.281 195.264 88.9243 200.143 88.9243Z" fill="#FF7ABE"/>
</svg>
