<svg width="248" height="261" viewBox="0 0 248 261" fill="none" xmlns="http://www.w3.org/2000/svg">
<path d="M131.02 228.443L125.721 251.388L139.882 251.119C144.742 250.778 149.198 253.127 150.631 257.781" stroke="#333333" stroke-width="5.6" stroke-linecap="round" stroke-linejoin="round"/>
<path d="M35.4733 151.137L13.9191 160.623L12.2446 146.525C11.67 141.687 7.83873 137.877 3 137.338" stroke="#333333" stroke-width="5.6" stroke-linecap="round" stroke-linejoin="round"/>
<path d="M154.029 102.346C146.629 105.595 119.144 120.225 110.984 116.748V116.727C110.062 116.351 109.402 115.734 109.033 114.84C105.933 107.355 119.207 103.559 119.207 103.559C119.207 103.559 226.035 55.4556 237.323 49.9003C237.323 49.9003 241.765 47.8782 244.099 51.5605C244.894 52.8518 245.199 55.2286 244.865 58.3361C243.709 69.9292 234.01 91.2565 210.611 100.288C180.983 111.69 162.273 98.7132 154.029 102.339V102.346Z" fill="#C8C8C8"/>
<path d="M154.029 102.346C146.629 105.595 119.144 120.225 110.984 116.748V116.727C110.921 116.606 110.864 116.486 110.814 116.344C108.139 108.703 121.598 105.659 121.598 105.659C121.598 105.659 223.857 96.0808 242.574 58.7545C242.574 58.7545 243.581 58.3643 244.865 58.343C243.709 69.9361 234.01 91.2634 210.611 100.295C180.983 111.697 162.273 98.7201 154.029 102.346Z" fill="#ACACAC"/>
<path d="M152.142 92.2638L150.368 89.9296L239.239 48.0839C239.239 48.0839 243.07 48.9423 242.063 49.7583C222.871 65.1826 152.142 92.2638 152.142 92.2638Z" fill="#DDDDDD"/>
<path d="M237.33 49.893C226.035 55.4554 119.207 103.559 119.207 103.559C119.207 103.559 105.94 107.362 109.04 114.84C112.687 123.666 145.792 105.964 154.036 102.353C162.266 98.7273 180.976 111.704 210.611 100.288C240.239 88.8724 247.909 57.6478 244.092 51.5745C241.765 47.8852 237.323 49.9001 237.323 49.9001L237.33 49.893Z" stroke="#333333" stroke-width="5.6" stroke-linecap="round" stroke-linejoin="round"/>
<path d="M111.403 123.325L125.536 116.89C129.389 115.124 131.233 110.186 129.658 105.865C128.055 101.537 123.649 99.4652 119.782 101.218L103.428 108.681C100.64 105.439 97.3197 102.573 93.4246 100.281C74.4173 89.0924 49.9328 95.4282 38.737 114.443C27.5555 133.443 33.8983 157.92 52.9055 169.123C71.9057 180.312 96.3831 173.983 107.586 154.976C113.432 145.029 114.454 133.592 111.417 123.332L111.403 123.325ZM61.2563 154.053C50.472 147.711 46.8891 133.826 53.2248 123.049C59.5748 112.271 73.4524 108.681 84.2367 115.024C95.0138 121.374 98.6109 135.259 92.261 146.036C85.9182 156.813 72.0263 160.418 61.2563 154.053Z" fill="#04CAE4"/>
<path d="M111.403 123.325L125.536 116.89C129.389 115.124 131.233 110.186 129.658 105.865C128.055 101.537 123.649 99.4652 119.782 101.218L103.428 108.681C100.64 105.439 97.3197 102.573 93.4246 100.281C74.4173 89.0924 49.9328 95.4282 38.737 114.443C27.5555 133.443 33.8983 157.92 52.9055 169.123C71.9057 180.312 96.3831 173.983 107.586 154.976C113.432 145.029 114.454 133.592 111.417 123.332L111.403 123.325ZM61.7316 153.245C51.4014 147.164 47.9604 133.861 54.0407 123.531C60.1211 113.208 73.424 109.76 83.7542 115.84C94.0773 121.928 97.5325 135.231 91.4451 145.561C85.3718 155.884 72.0547 159.339 61.7316 153.245V153.245Z" stroke="#333333" stroke-width="5.6" stroke-linecap="round" stroke-linejoin="round"/>
<path d="M47.8256 115.861C58.1345 102.104 77.6525 99.3091 91.4167 109.618" stroke="#00EDFF" stroke-width="5.6" stroke-linecap="round" stroke-linejoin="round"/>
<path d="M154.221 102.523C152.745 110.469 144.785 140.566 150.028 147.717H150.049C150.624 148.526 151.376 149.023 152.326 149.179C160.322 150.484 160.989 136.699 160.989 136.699C160.989 136.699 183.43 21.7119 186.254 9.4519C186.254 9.4519 187.212 4.66284 183.09 3.23676C181.657 2.75431 179.266 3.00263 176.314 4.03848C165.289 7.81297 146.743 22.1234 143.295 46.9627C138.967 78.4144 155.867 93.6613 154.221 102.523Z" fill="#D6D6D6"/>
<path d="M154.221 102.523C152.745 110.469 144.785 140.566 150.028 147.717H150.049C150.177 147.746 150.311 147.781 150.46 147.788C158.513 148.647 158.4 134.847 158.4 134.847C158.4 134.847 133.951 32.2621 176.442 6.35861C176.442 6.35861 176.591 5.29437 176.321 4.03857C165.296 7.81306 146.75 22.1235 143.302 46.9627C138.974 78.4145 155.874 93.6614 154.228 102.523H154.221Z" fill="#C2C2C2"/>
<path d="M159.946 126.44L163.657 128.696L187.588 7.17441C187.588 7.17441 185.878 3.64114 185.318 4.80471C174.682 27.0118 159.946 126.44 159.946 126.44Z" fill="#E6E6E6"/>
<path d="M183.083 3.24389C176.293 0.909662 147.651 15.511 143.302 46.9627C138.96 78.4215 155.86 93.6755 154.214 102.516C152.582 111.363 142.904 147.639 152.334 149.179C160.322 150.484 160.989 136.699 160.989 136.699C160.989 136.699 183.423 21.7119 186.261 9.44483C186.261 9.44483 187.212 4.66287 183.083 3.23679V3.24389Z" stroke="#333333" stroke-width="5.6" stroke-linecap="round" stroke-linejoin="round"/>
<path d="M113.602 159.772C97.6531 175.019 97.0856 200.291 112.318 216.233C127.558 232.182 152.844 232.764 168.787 217.538C184.736 202.291 185.318 177.005 170.085 161.063C166.963 157.799 163.416 155.217 159.62 153.244L163.153 135.613C163.976 131.449 160.954 127.625 156.378 127.057C151.809 126.511 147.417 129.434 146.58 133.584L143.543 148.817C132.858 148.207 121.96 151.811 113.61 159.772H113.602ZM125.799 172.642C134.838 164 149.176 164.334 157.825 173.373C166.467 182.419 166.133 196.757 157.094 205.392C148.048 214.026 133.709 213.707 125.075 204.654C116.426 195.615 116.76 181.269 125.799 172.635V172.642Z" fill="#04CAE4"/>
<path d="M113.602 159.772C97.6531 175.019 97.0856 200.291 112.318 216.233C127.558 232.182 152.844 232.764 168.787 217.538C184.736 202.291 185.318 177.005 170.085 161.063C166.963 157.799 163.416 155.217 159.62 153.244L163.153 135.613C163.976 131.449 160.954 127.625 156.378 127.057C151.809 126.511 147.417 129.434 146.58 133.584L143.543 148.817C132.858 148.207 121.96 151.811 113.61 159.772H113.602ZM126.451 173.323C135.114 165.043 148.857 165.362 157.144 174.025C165.424 182.695 165.111 196.431 156.441 204.711C147.772 212.983 134.029 212.678 125.756 204.008C117.462 195.345 117.788 181.596 126.451 173.323V173.323Z" stroke="#333333" stroke-width="5.6" stroke-linecap="round" stroke-linejoin="round"/>
<path d="M110.658 188.038C111.211 170.854 125.593 157.374 142.784 157.92" stroke="#00EDFF" stroke-width="5.6" stroke-linecap="round" stroke-linejoin="round"/>
<path d="M214.563 75.5268C216.613 80.0036 214.379 84.7218 209.902 86.7722L207.326 87.957C202.849 90.0075 198.039 88.5246 195.989 84.0477L195.073 82.047C194.797 81.4368 195.059 80.7202 195.669 80.4435L212.044 72.9371C212.654 72.6604 213.371 72.9229 213.648 73.5331L214.563 75.5339V75.5268Z" fill="#333333"/>
<path fill-rule="evenodd" clip-rule="evenodd" d="M222.062 67.0981C222.736 68.5739 222.091 70.3121 220.615 70.9861C219.139 71.6602 217.401 71.0145 216.727 69.5388C216.053 68.063 216.699 66.3248 218.174 65.6508C219.65 64.9768 221.388 65.6224 222.062 67.0981Z" fill="#333333"/>
<path fill-rule="evenodd" clip-rule="evenodd" d="M187.915 82.7495C188.589 84.2252 187.943 85.9635 186.467 86.6375C184.991 87.3115 183.253 86.6659 182.579 85.1901C181.905 83.7144 182.551 81.9762 184.026 81.3021C185.502 80.6281 187.241 81.2738 187.915 82.7495Z" fill="#333333"/>
<path d="M192.413 91.7885C193.087 93.2642 191.845 95.2721 189.646 96.2866C187.439 97.2941 185.105 96.9181 184.431 95.4494C183.757 93.9737 184.999 91.9658 187.198 90.9513C189.404 89.9438 191.739 90.3198 192.413 91.7885Z" fill="#FF7ABE"/>
<path d="M230.754 74.2216C231.428 75.6973 230.186 77.7052 227.987 78.7197C225.78 79.7272 223.446 79.3512 222.772 77.8825C222.098 76.4068 223.339 74.3989 225.539 73.3844C227.745 72.3769 230.08 72.7529 230.754 74.2216Z" fill="#FF7ABE"/>
</svg>
